<?xml version="1.0" encoding="UTF-8"?>
<!DOCTYPE svg PUBLIC "-//W3C//DTD SVG 1.1//EN" "http://www.w3.org/Graphics/SVG/1.1/DTD/svg11.dtd">
<!-- Creator: CorelDRAW 2021 (64-Bit Evaluation Version) -->
<svg xmlns="http://www.w3.org/2000/svg" xml:space="preserve" width="4.55607in" height="4.59373in" version="1.1" style="shape-rendering:geometricPrecision; text-rendering:geometricPrecision; image-rendering:optimizeQuality; fill-rule:evenodd; clip-rule:evenodd"
viewBox="0 0 4555.66 4593.31"
 xmlns:xlink="http://www.w3.org/1999/xlink"
 xmlns:xodm="http://www.corel.com/coreldraw/odm/2003">
 <defs>
  <style type="text/css">
   <![CDATA[
    .fil5 {fill:#FEFEFE}
    .fil0 {fill:#B4B6B5;fill-rule:nonzero}
    .fil2 {fill:#26B1E2;fill-rule:nonzero}
    .fil4 {fill:#2AAFE1;fill-rule:nonzero}
    .fil3 {fill:#324262;fill-rule:nonzero}
    .fil1 {fill:#32446A;fill-rule:nonzero}
   ]]>
  </style>
 </defs>
 <g id="Layer_x0020_1">
  <metadata id="CorelCorpID_0Corel-Layer"/>
  <g id="_2068300939376">
   <path class="fil0" d="M1294.03 1700.13l-136.27 -78.86 0 18.04 132.25 76.55c1.33,-5.18 2.65,-10.49 4.02,-15.73z"/>
   <path class="fil0" d="M1398.49 1307.78l-240.73 -139.4 0 18.05 236.34 136.85c1.46,-5.17 2.89,-10.35 4.39,-15.49z"/>
   <path class="fil0" d="M1890.89 2045.74l-376.28 -217.85 0 -434.85 376.28 217.89 0 434.81zm-376.28 -670.75l0 -180.13c-5.24,16.31 -10.49,32.65 -15.63,49.27l0 121.83 -30.75 -17.81c-1.46,5.14 -2.93,10.32 -4.4,15.49l35.14 20.36 0 434.81 -134.74 -78c-1.33,5.31 -2.69,10.45 -4.02,15.7l138.76 80.36 0 393.07 15.63 9.02 0 -393.04 376.28 217.85 0 392.42 15.63 9.02 0 -392.39 337.3 195.31 0 -18.04 -337.3 -195.31 0 -434.82 337.3 195.31 0 -18.04 -337.3 -195.31 0 -391.13 -15.63 -9.03 0 391.1 -376.28 -217.89z"/>
   <path class="fil0" d="M1508.2 981.17l-9.23 -5.31 0 28.4c3.1,-7.83 6.13,-15.53 9.23,-23.09z"/>
   <path class="fil0" d="M2560.82 2114.01l-238.86 138.31 0 18.08 252.61 -146.28c-4.63,-3.2 -9.23,-6.57 -13.75,-10.11z"/>
   <path class="fil0" d="M2361.08 1776.81l-39.12 22.64 0 18.08 44.61 -25.84c-1.84,-4.94 -3.68,-9.91 -5.48,-14.88z"/>
   <path class="fil0" d="M3195.78 1311.55l212.17 -122.88 0 -18.05 -206.93 119.82c-1.73,7.05 -3.47,14.07 -5.24,21.11z"/>
   <path class="fil0" d="M2429.8 1737.04c1.77,4.97 3.54,10.01 5.31,14.95l228 -132.02 0 434.82 -26.53 15.39c5.82,2.96 11.78,5.59 17.84,7.7l8.68 -5.04 0 7.73c5.14,1.4 10.35,2.52 15.63,3.31l0 -20.09 208.73 -120.84c5.62,-8.89 11.2,-18.15 16.72,-27.72l-225.44 130.51 0 -434.81 376.25 -217.89 0 139.37c5.31,-17.81 10.56,-35.82 15.66,-53.9l0 -94.49 30.44 -17.64c1.84,-7.08 3.72,-14.17 5.52,-21.25l-35.96 20.8 0 -392.32 -15.66 9.05 0 392.32 -376.25 217.89 0 -392.97 -15.63 9.03 0 393 -233.31 135.11z"/>
   <path class="fil0" d="M3070.65 1733.7c-5.11,13.86 -10.35,27.48 -15.66,40.89l0 53.29 -29.49 17.09c-3.71,8.31 -7.49,16.48 -11.31,24.59l40.79 -23.63 0 390.82 15.66 -9.03 0 -390.85 337.3 -195.35 0 -18.04 -337.3 195.34 0 -85.12z"/>
   <path class="fil0" d="M2663.1 2160.69l0 302.33 15.63 -9.02 0 -291.3c-5.28,-0.47 -10.49,-1.19 -15.63,-2.01z"/>
   <path class="fil0" d="M1908.11 706.42l20.94 -12.26c-5.68,-3.07 -11.48,-5.68 -17.33,-7.93l-19.31 11.31 -34.6 -19.62c-8.27,0.55 -16.55,1.84 -24.82,3.92l43.82 24.82 -205.28 120.37c-5.59,8.89 -11.17,18.25 -16.72,27.92l237.73 -139.37 131.33 74.43c-7.05,-10.69 -14.3,-20.84 -21.69,-30.27l-94.08 -53.32z"/>
   <path class="fil0" d="M1763.68 624.53l-210.3 -119.17 -15.69 9.06 209.91 118.97c5.31,-3.17 10.7,-6.1 16.07,-8.86z"/>
   <path class="fil0" d="M1536.29 906.33l3.41 1.94c0.89,-1.87 1.74,-3.64 2.62,-5.48l-6.02 3.54z"/>
   <path class="fil0" d="M3019.3 509.34l-15.56 -8.99 -326.68 191.49 -378.26 -214.45 330.08 -193.47 -15.56 -8.99 -330.21 193.57 -335.97 -190.47 -15.73 9.06 336.11 190.55 -276.69 162.21c4.6,3.2 9.19,6.54 13.65,10.11l278.77 -163.4 378.26 214.41 -375.13 219.89 -144.98 -82.19c3.91,8.07 7.76,16.24 11.54,24.52l117.88 66.8 -73.28 42.97c1.84,4.94 3.65,9.9 5.45,14.91l83.52 -48.96 347.17 196.77 15.7 -9.06 -347.27 -196.84 375.09 -219.89 350.17 198.47 15.7 -9.06 -350.27 -198.58 326.51 -191.39z"/>
   <path class="fil0" d="M2128.62 1013.35l-202.32 118.63 15.57 9.02 192.14 -112.67c-1.77,-5.04 -3.57,-9.98 -5.38,-14.98z"/>
   <path class="fil1" d="M2260.6 1166.16c-17.84,-59.66 -36.81,-120.16 -57.61,-178.29 -1.8,-5.01 -3.61,-9.98 -5.45,-14.91 -13.92,-38.04 -28.71,-74.91 -44.61,-109.77 -3.78,-8.28 -7.63,-16.45 -11.54,-24.52 -38.41,-79.17 -83.02,-146.01 -136.92,-188.74 -4.49,-3.54 -9.05,-6.88 -13.65,-10.08 -37.01,-25.77 -78.18,-40.48 -124.52,-40.48 -35.65,0 -69.77,8.44 -102.62,25.16 -5.42,2.76 -10.76,5.68 -16.07,8.86 -60.03,36.09 -115.7,101.02 -168.21,196.05 -12.56,22.71 -24.86,47.2 -37.08,73.34 -0.88,1.84 -1.73,3.61 -2.62,5.48 -10.56,22.88 -21.05,47.16 -31.5,72.9 -3.1,7.56 -6.13,15.26 -9.23,23.09 -9.67,24.72 -19.34,50.66 -29.04,78.11 -25.37,71.85 -49.06,148.05 -71.44,225.41 -1.5,5.14 -2.92,10.32 -4.39,15.49 -33.13,115.57 -63.3,233.18 -91.25,342.34 -2.96,11.68 -5.89,23.09 -8.82,34.52 -1.36,5.24 -2.69,10.56 -4.02,15.73 -14.3,55.77 -28.09,108.82 -41.48,157.86 -4.53,16.65 -8.85,32.89 -13.04,48.79 -4.36,16.72 2.79,34.39 17.74,43.07 0.24,0.14 0.44,0.28 0.68,0.41 22.17,12.87 50.53,1.46 57.03,-23.32 4.15,-15.76 8.48,-31.91 12.97,-48.35 11.78,-43.28 23.87,-89.52 36.3,-137.8 1.33,-5.28 2.69,-10.38 4.02,-15.7 4.74,-18.32 9.47,-36.95 14.34,-55.85 26.22,-102.62 54.51,-212.78 85.26,-321.33 1.46,-5.18 2.93,-10.35 4.4,-15.49 10.01,-35 20.19,-69.77 30.75,-104.02 5.14,-16.62 10.38,-32.96 15.63,-49.27 9.47,-29.35 19.1,-58.39 29.01,-86.49 34.63,-98.13 68.71,-176.99 104.16,-241.14 2.35,-4.22 4.7,-8.21 7.05,-12.29 5.55,-9.67 11.13,-19.03 16.72,-27.92 52.06,-82.68 106.16,-131.3 161.46,-145.19 8.27,-2.07 16.55,-3.37 24.82,-3.92 2.86,-0.17 5.65,-0.44 8.48,-0.44 15.73,0 30.82,3.13 45.43,8.75 5.85,2.25 11.64,4.87 17.33,7.93 26.05,14.1 50.36,36.57 73.14,65.58 7.39,9.43 14.61,19.58 21.69,30.27 39.29,59.52 73.75,137.87 104.73,223.33 1.81,5 3.61,9.94 5.38,14.98 18.59,52.51 35.92,107.39 52.3,162.04 5.04,16.92 20.57,27.89 37.39,27.89 5.44,0 11.03,-1.16 16.45,-3.61 18.01,-8.2 26.15,-29.52 20.46,-48.48z"/>
   <path class="fil2" d="M3466.54 677.34l-108.82 -62.86c-5.32,24.59 -11.17,51.38 -17.47,80.12l28.71 16.55 -37.12 21.45c-7.29,32.62 -15.09,67.28 -23.42,103.72l11.57 -6.68c0,0 0,0 0.04,0l87.92 -50.81 0 1254.13 -337.3 194.75 -15.66 9.03 -376.26 217.24 -15.62 9.03 -341.15 196.93 0 -1254.05 5.99 -3.48 335.15 -193.5 15.62 -9.03 376.26 -217.24 15.66 -9.05 53.7 -30.98c18.7,-10.8 25.06,-34.7 14.26,-53.36 -10.76,-18.7 -34.67,-25.12 -53.35,-14.3l-42.19 24.35 -15.7 9.06 -377.98 218.26 -15.7 9.05 -350.79 202.54 -341.04 -197.23 -15.56 -9.02 -190.54 -110.21c-0.04,0 -0.07,0 -0.1,-0.04l-15.29 -8.85c-18.66,-10.79 -42.6,-4.42 -53.39,14.26 -10.8,18.7 -4.43,42.6 14.26,53.4l209.65 121.25 15.62 9.03 337.31 195.1 0 1254.05 -337.31 -194.73 -15.62 -9.02 -376.28 -217.24 -15.63 -9.03 -151.62 -87.52c-50.57,-36 -98.69,46.45 -21,78.11l937.01 540.93c6.03,3.47 12.77,5.22 19.51,5.22 6.77,0 13.51,-1.74 19.54,-5.22l1164.13 -672.11c12.09,-6.94 19.58,-19.84 19.58,-33.84l0 -1344.35c0,-13.93 -7.49,-26.83 -19.58,-33.82zm-2265.13 1380.82l-43.65 -25.19 0 -1254.13 341.21 197.02 9.23 5.31c10.45,-25.73 20.94,-50.02 31.5,-72.89l-3.41 -1.94 -339.35 -195.21 340.75 -196.71 15.68 -9.06 378.03 -218.26 15.73 -9.07 335.73 -193.84 330.45 190.75 15.57 8.99 374.85 216.41 15.57 8.99 249.92 144.27c6.37,-29.08 12.19,-55.94 17.4,-80.19l-984.21 -568.18c-12.05,-6.98 -26.97,-6.98 -39.05,0l-1164.2 672.11c-3,1.74 -5.76,3.85 -8.14,6.26 -1.77,1.78 -3.16,3.89 -4.56,5.96 -0.48,0.71 -1.12,1.32 -1.61,2.07 -1.08,1.91 -1.77,4.02 -2.52,6.1 -0.4,1.12 -1.02,2.11 -1.33,3.26 -0.48,1.63 -0.48,3.38 -0.71,5.11 -0.2,1.67 -0.65,3.34 -0.65,5.04l0 1344.35c0,14 7.46,26.9 19.51,33.84l83.89 48.45 0.01 0.01 18.34 -79.65z"/>
   <path class="fil1" d="M3207.67 925.16c0,0.03 0,0.03 0,0.03 -3.75,16.03 -7.59,32.35 -11.51,48.86 -6.4,26.97 -12.94,54.62 -19.55,82.78 -21.49,91.35 -44.64,189.76 -70.01,288.3 -1.8,7.08 -3.68,14.16 -5.52,21.25 -9.8,37.59 -19.92,75.08 -30.44,112.12 -5.11,18.08 -10.35,36.09 -15.66,53.9 -43.51,146.38 -93.13,282.34 -150.81,382.82 -5.52,9.57 -11.1,18.83 -16.72,27.72 -55.74,87.91 -118.73,142.36 -190.75,142.36 -6.1,0 -12.09,-0.58 -17.98,-1.43 -5.28,-0.78 -10.49,-1.91 -15.63,-3.31 -2.93,-0.81 -5.82,-1.67 -8.68,-2.69 -6.06,-2.11 -12.02,-4.73 -17.84,-7.7 -83.19,-42.53 -147.88,-170.18 -201.47,-318.19 -1.77,-4.94 -3.54,-9.98 -5.31,-14.95 -16.42,-46.31 -31.77,-94.32 -46.31,-142.12 0,0 0,0 0,0 -18.39,-60.54 -36.23,-123.6 -55.54,-192.49l-5.99 3.48 0 254.38c12.5,39.74 25.47,78.79 39.12,116.52 1.81,4.97 3.65,9.94 5.48,14.88 51.69,139.43 113.08,258.68 194.25,322.32 4.53,3.54 9.13,6.91 13.75,10.11 27.24,18.73 56.62,31.36 88.53,36.57 5.14,0.81 10.35,1.54 15.63,2.01 5.89,0.51 11.92,0.75 17.98,0.75 133.17,0 235.21,-119.08 317.48,-293.88 3.81,-8.11 7.59,-16.28 11.31,-24.59 10.14,-22.68 19.95,-46.17 29.49,-70.38 5.31,-13.42 10.56,-27.04 15.66,-40.89 47.91,-129.36 88.56,-275.9 125.13,-422.15 1.77,-7.05 3.51,-14.06 5.24,-21.11 18.08,-72.93 35.17,-145.56 51.66,-215.7 6.61,-28.13 13.11,-55.74 19.51,-82.64 3.92,-16.58 7.76,-32.96 11.54,-49.07 0,0 0,0 0,-0.04 8.65,-36.87 16.89,-72.52 24.69,-106.68 8.34,-36.43 16.14,-71.1 23.43,-103.72 2.86,-13 5.65,-25.67 8.41,-38 6.3,-28.74 12.16,-55.54 17.47,-80.12 22.68,-105.11 35.61,-169.67 35.86,-170.83 4.22,-21.18 -9.5,-41.74 -30.65,-45.96 -21.11,-4.19 -41.74,9.5 -45.97,30.64 -0.2,1.06 -11.1,55.26 -30.34,145.09 -5.21,24.25 -11.03,51.11 -17.4,80.19 -16.82,76.88 -37.59,169.46 -61.56,271.55z"/>
   <polygon class="fil3" points="916.79,3045.75 663.29,3045.75 226.74,3506.24 226.74,3045.75 -0,3045.75 -0,4031.56 226.74,4031.56 226.74,3782.28 359.12,3644.28 674.56,4031.56 940.73,4031.56 508.4,3485.12 "/>
   <path class="fil3" d="M1912.44 3045.75l-225.34 0 0 543.61c0,91.08 -18.79,157.95 -56.32,200.69 -37.56,42.73 -92.04,64.05 -163.37,64.05 -146.45,0 -219.69,-88.23 -219.69,-264.74l0 -543.61 -228.13 0 0 552.05c0,144.61 39.19,255.85 117.61,333.76 78.35,77.94 187.99,116.89 328.82,116.89 140.83,0 250.44,-38.95 328.82,-116.89 78.38,-77.9 117.61,-189.15 117.61,-333.76l0 -552.05z"/>
   <path class="fil3" d="M2766.55 3830.19c-30.54,19.68 -75.83,29.55 -135.89,29.55l-266.2 0 0 -243.63 266.2 0c121.11,0 181.66,40.83 181.66,122.52 0,41.33 -15.29,71.81 -45.76,91.56zm-402.1 -612.63l226.74 0c56.36,0 99.05,9.63 128.17,28.88 29.08,19.27 43.65,48.11 43.65,86.59 0,38.54 -14.58,67.62 -43.65,87.34 -29.11,19.71 -71.81,29.56 -128.17,29.56l-226.74 0 0 -232.36zm497.16 301.37c41.3,-21.58 73.45,-51.14 96.46,-88.74 22.98,-37.52 34.46,-80.25 34.46,-128.13 0,-78.86 -32.14,-141.31 -96.43,-187.31 -64.32,-46 -156.56,-69.02 -276.76,-69.02l-481.6 0 0 985.81 509.8 0c128.6,0 226.5,-23.26 293.61,-69.74 67.11,-46.44 100.69,-112.87 100.69,-199.26 0,-61.02 -15.97,-112.4 -47.87,-154.21 -31.91,-41.75 -76.04,-71.57 -132.35,-89.42z"/>
   <polygon class="fil3" points="3215.09,4031.56 3443.25,4031.56 3443.25,3045.76 3215.09,3045.76 "/>
   <path class="fil3" d="M3998.03 3263.33c47.94,-26.77 102.36,-40.11 163.37,-40.11 98.61,0 181.21,38.51 247.88,115.46l146.38 -135.18c-46.92,-56.35 -104.77,-99.53 -173.89,-129.59 -68.95,-30.03 -146.25,-45.05 -231.61,-45.05 -101.33,0 -192.72,21.82 -273.93,65.47 -81.21,43.69 -145.12,104.23 -191.46,181.66 -46.48,77.47 -69.8,165.04 -69.8,262.67 0,97.65 23.32,185.19 69.8,262.66 46.34,77.43 110.25,138 191.46,181.63 81.21,43.69 172.02,65.51 272.5,65.51 85.36,0 162.82,-15.01 232.32,-45.04 69.56,-30.06 127.69,-73.72 174.61,-130.99l-146.38 -135.18c-66.67,77.94 -149.27,116.86 -247.88,116.86 -61.01,0 -115.43,-13.38 -163.37,-40.11 -47.81,-26.76 -85.22,-64.08 -111.99,-111.95 -26.66,-47.88 -40.04,-102.33 -40.04,-163.37 0,-61.02 13.38,-115.47 40.04,-163.37 26.77,-47.88 64.18,-85.19 111.99,-111.96z"/>
   <polygon class="fil4" points="52.09,4228.6 -0,4228.6 -0,4593.31 249.58,4593.31 249.58,4547.99 52.09,4547.99 "/>
   <polygon class="fil4" points="622.09,4430.25 804.97,4430.25 804.97,4385.98 622.09,4385.98 622.09,4273.96 827.37,4273.96 827.37,4228.6 569.99,4228.6 569.99,4593.31 834.66,4593.31 834.66,4547.99 622.09,4547.99 "/>
   <path class="fil4" d="M1236.35 4460.48l78.69 -178.72 78.65 178.72 -157.34 0zm53.15 -231.88l-165.14 364.71 53.66 0 40.11 -91.18 193.81 0 40.11 91.18 54.72 0 -165.69 -364.71 -51.58 0z"/>
   <path class="fil4" d="M1962.15 4438.08l-88.59 0 0 -164.12 88.59 0c32.96,0 58.16,7.02 75.52,21.08 17.36,14.1 26.05,34.29 26.05,60.71 0,26.39 -8.68,46.72 -26.05,60.95 -17.36,14.23 -42.56,21.39 -75.52,21.39zm132.86 -10.46c13.86,-19.78 20.81,-43.76 20.81,-71.88 0,-39.6 -13.52,-70.69 -40.62,-93.26 -27.1,-22.57 -64.25,-33.88 -111.48,-33.88l-142.26 0 0 364.71 52.1 0 0 -110.97 90.16 0c5.52,0 13.18,-0.34 22.92,-1.05l78.65 112.02 56.79 0 -86.49 -122.45c25.71,-9.02 45.49,-23.42 59.42,-43.24z"/>
   <polygon class="fil4" points="2722.28,4500.56 2503.48,4228.6 2460.75,4228.6 2460.75,4593.31 2512.84,4593.31 2512.84,4321.36 2731.65,4593.31 2774.38,4593.31 2774.38,4228.6 2722.28,4228.6 "/>
   <polygon class="fil4" points="3144.3,4593.31 3196.4,4593.31 3196.4,4228.61 3144.3,4228.61 "/>
   <polygon class="fil4" points="3827.85,4500.56 3609.05,4228.6 3566.31,4228.6 3566.31,4593.31 3618.4,4593.31 3618.4,4321.36 3837.21,4593.31 3879.98,4593.31 3879.98,4228.6 3827.85,4228.6 "/>
   <polygon class="fil5" points="1299.5,2205.02 1319.51,2126.36 "/>
   <path class="fil1" d="M1144.62 2328.21c-3.54,21.25 10.86,41.38 32.11,44.95 2.18,0.38 4.36,0.54 6.5,0.54 18.73,0 35.28,-13.55 38.48,-32.65 0.17,-1.06 80.41,-346.7 102.22,-446.74l-88.44 28.19c-25.98,116.62 -90.67,404.52 -90.87,405.71z"/>
   <path class="fil4" d="M4334.58 4290.77c21.19,-11.53 45.13,-17.26 71.85,-17.26 39.73,0 73.66,13.53 101.79,40.58l30.98 -31.08c-16.05,-17.68 -35.43,-31.14 -58.26,-40.35 -22.99,-9.17 -48.34,-13.75 -76.44,-13.75 -35.86,0 -67.99,7.7 -96.52,23.06 -28.49,15.36 -50.96,36.74 -67.14,64.12 -16.22,27.41 -24.37,58.14 -24.37,92.22 0,34.06 8.16,64.75 24.37,91.93 16.18,27.25 38.48,48.64 66.88,64.16 28.4,15.56 60.36,23.32 95.66,23.32 25.06,0 49.16,-3.87 72.28,-11.56 22.99,-7.66 43.2,-18.7 60.66,-33.05l0 -136.8 -48.18 0 0 114.24c-23.42,15.03 -50.83,22.56 -82.11,22.56 -26.46,0 -50.27,-5.83 -71.46,-17.55 -21.19,-11.69 -37.8,-27.81 -49.85,-48.34 -12.05,-20.54 -18.14,-43.53 -18.14,-68.91 0,-25.74 6.09,-48.89 18.14,-69.4 12.05,-20.57 28.66,-36.61 49.85,-48.15z"/>
  </g>
 </g>
</svg>
