<?xml version="1.0" encoding="UTF-8"?>
<!DOCTYPE svg PUBLIC "-//W3C//DTD SVG 1.1//EN" "http://www.w3.org/Graphics/SVG/1.1/DTD/svg11.dtd">
<!-- Creator: CorelDRAW 2021 (64-Bit Evaluation Version) -->
<svg xmlns="http://www.w3.org/2000/svg" xml:space="preserve" width="6.78106in" height="2.19564in" version="1.1" style="shape-rendering:geometricPrecision; text-rendering:geometricPrecision; image-rendering:optimizeQuality; fill-rule:evenodd; clip-rule:evenodd"
viewBox="0 0 6780.64 2195.5"
 xmlns:xlink="http://www.w3.org/1999/xlink"
 xmlns:xodm="http://www.corel.com/coreldraw/odm/2003">
 <defs>
  <style type="text/css">
   <![CDATA[
    .fil5 {fill:#FEFEFE}
    .fil2 {fill:#B4B6B5;fill-rule:nonzero}
    .fil4 {fill:#26B1E2;fill-rule:nonzero}
    .fil1 {fill:#2AAFE1;fill-rule:nonzero}
    .fil0 {fill:#324262;fill-rule:nonzero}
    .fil3 {fill:#32446A;fill-rule:nonzero}
   ]]>
  </style>
 </defs>
 <g id="Layer_x0020_1">
  <metadata id="CorelCorpID_0Corel-Layer"/>
  <g id="_2068290714016">
   <g>
    <polygon class="fil0" points="3141.66,332.39 2888.15,332.39 2451.59,792.9 2451.59,332.39 2224.84,332.39 2224.84,1318.23 2451.59,1318.23 2451.59,1068.95 2583.97,930.94 2899.42,1318.23 3165.6,1318.23 2733.26,771.78 "/>
    <path class="fil0" d="M4137.34 332.39l-225.35 0 0 543.62c0,91.08 -18.79,157.96 -56.32,200.69 -37.56,42.73 -92.04,64.05 -163.38,64.05 -146.45,0 -219.7,-88.23 -219.7,-264.74l0 -543.62 -228.14 0 0 552.06c0,144.61 39.19,255.86 117.61,333.77 78.35,77.94 188,116.89 328.83,116.89 140.83,0 250.45,-38.95 328.83,-116.89 78.38,-77.9 117.61,-189.15 117.61,-333.77l0 -552.06z"/>
    <path class="fil0" d="M4991.47 1116.86c-30.54,19.68 -75.83,29.55 -135.9,29.55l-266.21 0 0 -243.63 266.21 0c121.12,0 181.66,40.83 181.66,122.52 0,41.34 -15.29,71.81 -45.76,91.56zm-402.11 -612.64l226.75 0c56.36,0 99.06,9.63 128.17,28.88 29.08,19.27 43.65,48.11 43.65,86.59 0,38.54 -14.58,67.63 -43.65,87.34 -29.11,19.72 -71.81,29.56 -128.17,29.56l-226.75 0 0 -232.36zm497.18 301.38c41.3,-21.59 73.45,-51.14 96.47,-88.74 22.98,-37.52 34.46,-80.25 34.46,-128.13 0,-78.86 -32.14,-141.31 -96.43,-187.32 -64.32,-46 -156.57,-69.02 -276.77,-69.02l-481.61 0 0 985.84 509.81 0c128.61,0 226.5,-23.26 293.62,-69.74 67.11,-46.44 100.69,-112.87 100.69,-199.26 0,-61.02 -15.97,-112.4 -47.88,-154.21 -31.91,-41.75 -76.04,-71.57 -132.36,-89.42z"/>
    <polygon class="fil0" points="5440.02,1318.23 5668.19,1318.23 5668.19,332.4 5440.02,332.4 "/>
    <path class="fil0" d="M6222.99 549.98c47.95,-26.77 102.36,-40.11 163.38,-40.11 98.61,0 181.22,38.51 247.89,115.47l146.38 -135.18c-46.92,-56.35 -104.77,-99.53 -173.89,-129.6 -68.96,-30.03 -146.25,-45.05 -231.62,-45.05 -101.34,0 -192.72,21.83 -273.94,65.48 -81.21,43.69 -145.12,104.23 -191.46,181.66 -46.48,77.47 -69.8,165.04 -69.8,262.67 0,97.66 23.32,185.2 69.8,262.66 46.34,77.43 110.25,138.01 191.46,181.63 81.22,43.69 172.02,65.51 272.51,65.51 85.36,0 162.83,-15.01 232.33,-45.04 69.57,-30.07 127.69,-73.72 174.61,-131l-146.38 -135.18c-66.67,77.94 -149.28,116.86 -247.89,116.86 -61.02,0 -115.43,-13.38 -163.38,-40.12 -47.81,-26.76 -85.23,-64.08 -111.99,-111.95 -26.66,-47.88 -40.04,-102.33 -40.04,-163.38 0,-61.02 13.38,-115.47 40.04,-163.38 26.77,-47.88 64.19,-85.2 111.99,-111.96z"/>
    <polygon class="fil1" points="2276.94,1515.28 2224.84,1515.28 2224.84,1880 2474.43,1880 2474.43,1834.68 2276.94,1834.68 "/>
    <polygon class="fil1" points="2846.95,1716.93 3029.84,1716.93 3029.84,1672.67 2846.95,1672.67 2846.95,1560.64 3052.24,1560.64 3052.24,1515.28 2794.85,1515.28 2794.85,1880 3059.53,1880 3059.53,1834.68 2846.95,1834.68 "/>
    <path class="fil1" d="M3461.23 1747.17l78.69 -178.73 78.66 178.73 -157.35 0zm53.15 -231.88l-165.15 364.72 53.67 0 40.11 -91.19 193.81 0 40.11 91.19 54.72 0 -165.69 -364.72 -51.58 0z"/>
    <path class="fil1" d="M4187.05 1724.77l-88.6 0 0 -164.13 88.6 0c32.96,0 58.16,7.02 75.53,21.08 17.37,14.1 26.05,34.29 26.05,60.71 0,26.39 -8.68,46.72 -26.05,60.95 -17.37,14.24 -42.56,21.39 -75.53,21.39zm132.87 -10.46c13.86,-19.78 20.81,-43.76 20.81,-71.88 0,-39.6 -13.52,-70.69 -40.62,-93.27 -27.1,-22.57 -64.26,-33.88 -111.49,-33.88l-142.26 0 0 364.72 52.1 0 0 -110.97 90.16 0c5.52,0 13.18,-0.34 22.92,-1.05l78.66 112.02 56.8 0 -86.49 -122.45c25.71,-9.02 45.49,-23.42 59.42,-43.24z"/>
    <polygon class="fil1" points="4947.21,1787.25 4728.39,1515.28 4685.66,1515.28 4685.66,1880 4737.76,1880 4737.76,1608.04 4956.57,1880 4999.3,1880 4999.3,1515.28 4947.21,1515.28 "/>
    <polygon class="fil1" points="5369.23,1880 5421.33,1880 5421.33,1515.29 5369.23,1515.29 "/>
    <polygon class="fil1" points="6052.8,1787.25 5834,1515.28 5791.26,1515.28 5791.26,1880 5843.35,1880 5843.35,1608.04 6062.17,1880 6104.94,1880 6104.94,1515.28 6052.8,1515.28 "/>
    <path class="fil1" d="M6559.55 1577.45c21.19,-11.53 45.13,-17.26 71.85,-17.26 39.73,0 73.66,13.53 101.79,40.58l30.98 -31.08c-16.05,-17.68 -35.43,-31.14 -58.26,-40.35 -22.99,-9.17 -48.34,-13.76 -76.44,-13.76 -35.86,0 -67.99,7.7 -96.52,23.06 -28.49,15.36 -50.96,36.75 -67.14,64.13 -16.22,27.42 -24.37,58.14 -24.37,92.23 0,34.06 8.16,64.75 24.37,91.94 16.18,27.25 38.48,48.64 66.88,64.16 28.4,15.56 60.36,23.32 95.66,23.32 25.06,0 49.16,-3.87 72.29,-11.56 22.99,-7.66 43.2,-18.7 60.66,-33.05l0 -136.8 -48.18 0 0 114.24c-23.42,15.03 -50.84,22.56 -82.11,22.56 -26.46,0 -50.27,-5.83 -71.46,-17.55 -21.19,-11.69 -37.8,-27.81 -49.85,-48.34 -12.05,-20.54 -18.14,-43.53 -18.14,-68.91 0,-25.74 6.09,-48.89 18.14,-69.4 12.05,-20.57 28.66,-36.62 49.85,-48.15z"/>
   </g>
   <g>
    <path class="fil2" d="M170.12 1349.14l-108.14 -62.57 0 14.32 104.95 60.74c1.06,-4.11 2.11,-8.33 3.19,-12.49z"/>
    <path class="fil2" d="M253.02 1037.79l-191.03 -110.62 0 14.32 187.55 108.6c1.16,-4.11 2.3,-8.21 3.48,-12.29z"/>
    <path class="fil2" d="M643.76 1623.4l-298.6 -172.88 0 -345.08 298.6 172.91 0 345.05zm-298.6 -532.27l0 -142.94c-4.16,12.94 -8.32,25.92 -12.4,39.1l0 96.68 -24.4 -14.13c-1.16,4.08 -2.32,8.19 -3.49,12.29l27.89 16.16 0 345.05 -106.92 -61.9c-1.06,4.22 -2.13,8.29 -3.19,12.46l110.11 63.77 0 311.93 12.4 7.16 0 -311.89 298.6 172.88 0 311.41 12.4 7.16 0 -311.38 267.66 154.99 0 -14.32 -267.66 -154.99 0 -345.05 267.66 154.99 0 -14.32 -267.66 -154.99 0 -310.38 -12.4 -7.16 0 310.35 -298.6 -172.9z"/>
    <path class="fil2" d="M340.08 778.61l-7.32 -4.21 0 22.53c2.46,-6.21 4.86,-12.32 7.32,-18.32z"/>
    <path class="fil2" d="M1175.38 1677.57l-189.55 109.76 0 14.35 200.46 -116.08c-3.67,-2.54 -7.32,-5.21 -10.91,-8.02z"/>
    <path class="fil2" d="M1016.88 1409.99l-31.05 17.97 0 14.35 35.4 -20.51c-1.46,-3.92 -2.92,-7.87 -4.35,-11.81z"/>
    <path class="fil2" d="M1679.25 1040.79l168.37 -97.51 0 -14.32 -164.21 95.08c-1.37,5.6 -2.76,11.16 -4.16,16.75z"/>
    <path class="fil2" d="M1071.41 1378.43c1.4,3.94 2.81,7.94 4.21,11.86l180.93 -104.76 0 345.05 -21.05 12.21c4.62,2.35 9.35,4.43 14.16,6.11l6.89 -4 0 6.13c4.08,1.11 8.22,2 12.4,2.62l0 -15.94 165.64 -95.9c4.46,-7.05 8.89,-14.4 13.27,-21.99l-178.9 103.57 0 -345.05 298.58 -172.91 0 110.6c4.22,-14.13 8.38,-28.42 12.43,-42.77l0 -74.98 24.16 -14c1.46,-5.62 2.94,-11.24 4.38,-16.86l-28.53 16.51 0 -311.33 -12.43 7.18 0 311.33 -298.58 172.9 0 -311.84 -12.4 7.16 0 311.87 -185.14 107.21z"/>
    <path class="fil2" d="M1579.96 1375.79c-4.05,11 -8.21,21.81 -12.43,32.45l0 42.28 -23.4 13.57c-2.94,6.59 -5.94,13.08 -8.97,19.51l32.37 -18.75 0 310.14 12.43 -7.16 0 -310.17 267.66 -155.01 0 -14.32 -267.66 155.01 0 -67.55z"/>
    <path class="fil2" d="M1256.55 1714.62l0 239.91 12.4 -7.16 0 -231.16c-4.18,-0.38 -8.32,-0.95 -12.4,-1.59z"/>
    <path class="fil2" d="M657.43 560.58l16.62 -9.73c-4.51,-2.43 -9.11,-4.51 -13.76,-6.29l-15.32 8.97 -27.46 -15.56c-6.57,0.43 -13.13,1.46 -19.7,3.11l34.78 19.7 -162.9 95.52c-4.43,7.05 -8.87,14.48 -13.27,22.15l188.65 -110.59 104.22 59.06c-5.59,-8.48 -11.35,-16.53 -17.21,-24.02l-74.66 -42.32z"/>
    <path class="fil2" d="M542.81 495.6l-166.88 -94.57 -12.46 7.19 166.58 94.41c4.22,-2.52 8.49,-4.83 12.76,-7.02z"/>
    <path class="fil2" d="M362.37 719.22l2.7 1.54c0.7,-1.49 1.38,-2.89 2.08,-4.35l-4.78 2.81z"/>
    <path class="fil2" d="M1539.21 404.19l-12.35 -7.13 -259.23 151.96 -300.17 -170.17 261.94 -153.53 -12.35 -7.13 -262.04 153.61 -266.61 -151.15 -12.48 7.19 266.72 151.21 -219.57 128.72c3.65,2.54 7.29,5.19 10.83,8.02l221.22 -129.67 300.17 170.15 -297.68 174.5 -115.05 -65.22c3.11,6.4 6.16,12.89 9.16,19.46l93.55 53.01 -58.15 34.1c1.46,3.92 2.89,7.86 4.32,11.84l66.28 -38.86 275.49 156.15 12.46 -7.19 -275.58 -156.21 297.66 -174.49 277.87 157.5 12.46 -7.19 -277.96 -157.58 259.1 -151.88z"/>
    <path class="fil2" d="M832.41 804.14l-160.55 94.14 12.35 7.16 152.47 -89.41c-1.41,-4 -2.84,-7.92 -4.27,-11.89z"/>
    <path class="fil3" d="M937.15 925.41c-14.16,-47.34 -29.21,-95.36 -45.72,-141.48 -1.43,-3.98 -2.86,-7.92 -4.32,-11.84 -11.05,-30.18 -22.78,-59.45 -35.4,-87.11 -3,-6.57 -6.05,-13.05 -9.16,-19.46 -30.48,-62.82 -65.87,-115.87 -108.65,-149.77 -3.56,-2.81 -7.18,-5.46 -10.83,-8 -29.37,-20.46 -62.04,-32.13 -98.81,-32.13 -28.29,0 -55.36,6.7 -81.44,19.97 -4.3,2.19 -8.54,4.51 -12.76,7.02 -47.63,28.64 -91.81,80.17 -133.48,155.58 -9.97,18.03 -19.73,37.45 -29.43,58.21 -0.7,1.46 -1.38,2.86 -2.08,4.35 -8.38,18.16 -16.7,37.42 -24.99,57.85 -2.46,6 -4.87,12.11 -7.32,18.32 -7.67,19.62 -15.35,40.21 -23.05,61.98 -20.13,57.01 -38.93,117.48 -56.69,178.87 -1.19,4.08 -2.32,8.19 -3.48,12.29 -26.29,91.71 -50.23,185.04 -72.41,271.66 -2.35,9.27 -4.68,18.32 -7,27.4 -1.08,4.16 -2.13,8.38 -3.19,12.49 -11.35,44.26 -22.29,86.36 -32.91,125.26 -3.59,13.21 -7.02,26.1 -10.35,38.72 -3.46,13.27 2.22,27.29 14.08,34.18 0.19,0.11 0.35,0.22 0.54,0.32 17.59,10.21 40.1,1.16 45.26,-18.51 3.3,-12.51 6.72,-25.32 10.29,-38.37 9.35,-34.34 18.94,-71.03 28.81,-109.35 1.06,-4.19 2.13,-8.24 3.19,-12.46 3.76,-14.53 7.51,-29.32 11.37,-44.31 20.81,-81.44 43.26,-168.85 67.66,-254.99 1.17,-4.11 2.33,-8.21 3.49,-12.29 7.94,-27.77 16.02,-55.36 24.4,-82.55 4.08,-13.18 8.24,-26.16 12.4,-39.1 7.51,-23.29 15.16,-46.34 23.02,-68.63 27.48,-77.87 54.53,-140.45 82.65,-191.35 1.87,-3.35 3.73,-6.52 5.6,-9.76 4.4,-7.67 8.83,-15.1 13.27,-22.15 41.31,-65.61 84.25,-104.19 128.13,-115.22 6.57,-1.65 13.13,-2.67 19.7,-3.11 2.27,-0.14 4.49,-0.35 6.73,-0.35 12.49,0 24.46,2.48 36.05,6.94 4.65,1.78 9.24,3.86 13.76,6.29 20.67,11.19 39.96,29.02 58.04,52.04 5.86,7.48 11.59,15.53 17.21,24.02 31.18,47.23 58.52,109.41 83.11,177.23 1.43,3.97 2.87,7.89 4.27,11.89 14.75,41.67 28.51,85.23 41.5,128.59 4,13.43 16.32,22.13 29.67,22.13 4.32,0 8.76,-0.92 13.05,-2.87 14.29,-6.51 20.75,-23.42 16.24,-38.47z"/>
    <path class="fil4" d="M1894.12 537.5l-86.35 -49.87c-4.22,19.51 -8.87,40.77 -13.87,63.57l22.78 13.14 -29.45 17.02c-5.78,25.88 -11.97,53.39 -18.59,82.31l9.18 -5.3c0,0 0,0 0.03,0l69.77 -40.32 0 995.22 -267.66 154.55 -12.42 7.16 -298.58 172.39 -12.4 7.16 -270.72 156.28 0 -995.15 4.75 -2.76 265.96 -153.56 12.4 -7.16 298.58 -172.39 12.42 -7.18 42.61 -24.59c14.84,-8.57 19.89,-27.54 11.32,-42.34 -8.54,-14.84 -27.51,-19.94 -42.34,-11.35l-33.48 19.32 -12.46 7.19 -299.95 173.2 -12.46 7.18 -278.37 160.72 -270.63 -156.51 -12.35 -7.16 -151.2 -87.46c-0.03,0 -0.06,0 -0.08,-0.03l-12.14 -7.03c-14.81,-8.56 -33.81,-3.51 -42.37,11.32 -8.57,14.83 -3.52,33.81 11.32,42.37l166.37 96.22 12.4 7.16 267.67 154.82 0 995.15 -267.67 -154.53 -12.4 -7.16 -298.6 -172.39 -12.4 -7.16 -120.32 -69.45c-40.13,-28.57 -78.31,36.86 -16.67,61.98l743.57 429.25c4.78,2.76 10.13,4.14 15.48,4.14 5.37,0 10.72,-1.38 15.51,-4.14l923.79 -533.35c9.6,-5.51 15.54,-15.75 15.54,-26.86l0 -1066.81c0,-11.05 -5.94,-21.29 -15.54,-26.84zm-1797.5 1095.76l-34.64 -19.99 0 -995.22 270.77 156.34 7.33 4.21c8.29,-20.42 16.62,-39.7 24.99,-57.85l-2.7 -1.54 -269.29 -154.91 270.4 -156.1 12.45 -7.18 299.99 -173.2 12.48 -7.19 266.42 -153.83 262.23 151.37 12.35 7.14 297.46 171.74 12.35 7.13 198.33 114.49c5.06,-23.07 9.68,-44.39 13.81,-63.63l-781.02 -450.89c-9.57,-5.54 -21.4,-5.54 -30.99,0l-923.85 533.35c-2.38,1.38 -4.57,3.05 -6.46,4.97 -1.41,1.41 -2.51,3.08 -3.62,4.74 -0.39,0.56 -0.89,1.05 -1.28,1.64 -0.86,1.51 -1.41,3.19 -2,4.84 -0.32,0.89 -0.81,1.67 -1.06,2.59 -0.37,1.3 -0.37,2.68 -0.56,4.05 -0.16,1.33 -0.52,2.65 -0.52,4l0 1066.81c0,11.11 5.92,21.35 15.49,26.86l66.57 38.45 0.01 0.01 14.55 -63.21z"/>
    <path class="fil3" d="M1688.69 734.16c0,0.03 0,0.03 0,0.03 -2.97,12.73 -6.02,25.67 -9.13,38.77 -5.08,21.4 -10.27,43.34 -15.51,65.69 -17.05,72.5 -35.42,150.59 -55.55,228.78 -1.43,5.62 -2.92,11.24 -4.38,16.86 -7.78,29.83 -15.81,59.58 -24.16,88.97 -4.05,14.35 -8.21,28.64 -12.43,42.77 -34.53,116.16 -73.9,224.05 -119.67,303.79 -4.38,7.59 -8.81,14.94 -13.27,21.99 -44.23,69.77 -94.22,112.97 -151.37,112.97 -4.84,0 -9.59,-0.46 -14.27,-1.13 -4.18,-0.62 -8.32,-1.51 -12.4,-2.62 -2.33,-0.65 -4.62,-1.32 -6.89,-2.13 -4.81,-1.68 -9.54,-3.76 -14.16,-6.11 -66.01,-33.75 -117.35,-135.04 -159.88,-252.5 -1.41,-3.92 -2.81,-7.92 -4.21,-11.86 -13.03,-36.75 -25.21,-74.84 -36.75,-112.78 0,0 0,0 0,0 -14.59,-48.04 -28.75,-98.08 -44.07,-152.75l-4.76 2.76 0 201.87c9.92,31.53 20.21,62.52 31.05,92.46 1.43,3.94 2.89,7.89 4.35,11.81 41.02,110.64 89.73,205.27 154.15,255.77 3.59,2.81 7.24,5.49 10.91,8.02 21.62,14.87 44.93,24.89 70.26,29.02 4.08,0.65 8.22,1.22 12.4,1.59 4.68,0.41 9.46,0.59 14.27,0.59 105.67,0 186.66,-94.49 251.94,-233.21 3.03,-6.43 6.03,-12.92 8.97,-19.51 8.05,-18 15.83,-36.64 23.4,-55.85 4.22,-10.65 8.38,-21.46 12.43,-32.45 38.02,-102.65 70.28,-218.95 99.3,-335 1.41,-5.59 2.79,-11.16 4.16,-16.75 14.35,-57.88 27.92,-115.51 40.99,-171.17 5.24,-22.32 10.4,-44.23 15.48,-65.58 3.11,-13.16 6.16,-26.16 9.16,-38.94 0,0 0,0 0,-0.02 6.87,-29.27 13.4,-57.56 19.59,-84.66 6.62,-28.91 12.81,-56.42 18.59,-82.31 2.27,-10.32 4.48,-20.37 6.67,-30.15 5,-22.81 9.65,-44.07 13.86,-63.58 17.99,-83.41 28.26,-134.64 28.45,-135.56 3.35,-16.81 -7.54,-33.12 -24.32,-36.48 -16.75,-3.32 -33.13,7.54 -36.48,24.32 -0.16,0.84 -8.81,43.85 -24.07,115.13 -4.13,19.24 -8.76,40.56 -13.81,63.63 -13.35,61.01 -29.83,134.48 -48.85,215.49z"/>
    <polygon class="fil5" points="174.46,1749.8 190.34,1687.38 "/>
    <path class="fil3" d="M51.55 1847.56c-2.81,16.87 8.62,32.83 25.48,35.67 1.74,0.3 3.46,0.43 5.16,0.43 14.87,0 28,-10.75 30.53,-25.91 0.14,-0.84 63.81,-275.12 81.12,-354.51l-70.18 22.37c-20.62,92.54 -71.95,321.01 -72.12,321.96z"/>
   </g>
  </g>
 </g>
</svg>
