<?xml version="1.0" encoding="UTF-8"?>
<!DOCTYPE svg PUBLIC "-//W3C//DTD SVG 1.1//EN" "http://www.w3.org/Graphics/SVG/1.1/DTD/svg11.dtd">
<!-- Creator: CorelDRAW 2021 (64-Bit Evaluation Version) -->
<svg xmlns="http://www.w3.org/2000/svg" xml:space="preserve" width="3.3395in" height="3.83937in" version="1.1" style="shape-rendering:geometricPrecision; text-rendering:geometricPrecision; image-rendering:optimizeQuality; fill-rule:evenodd; clip-rule:evenodd"
viewBox="0 0 3339.08 3838.88"
 xmlns:xlink="http://www.w3.org/1999/xlink"
 xmlns:xodm="http://www.corel.com/coreldraw/odm/2003">
 <defs>
  <style type="text/css">
   <![CDATA[
    .fil3 {fill:#FEFEFE}
    .fil0 {fill:#B4B6B5;fill-rule:nonzero}
    .fil2 {fill:#26B1E2;fill-rule:nonzero}
    .fil1 {fill:#32446A;fill-rule:nonzero}
   ]]>
  </style>
 </defs>
 <g id="Layer_x0020_1">
  <metadata id="CorelCorpID_0Corel-Layer"/>
  <g id="_2068342911216">
   <path class="fil0" d="M297.45 2359l-189.07 -109.42 0 25.04 183.5 106.21c1.84,-7.18 3.68,-14.56 5.57,-21.83z"/>
   <path class="fil0" d="M442.4 1814.59l-334.02 -193.43 0 25.04 327.93 189.88c2.04,-7.18 4.02,-14.36 6.09,-21.49z"/>
   <path class="fil0" d="M1125.63 2838.55l-522.11 -302.28 0 -603.38 522.11 302.33 0 603.33zm-522.11 -930.69l0 -249.93c-7.27,22.63 -14.55,45.31 -21.69,68.37l0 169.04 -42.66 -24.71c-2.04,7.14 -4.07,14.32 -6.1,21.5l48.76 28.25 0 603.33 -186.95 -108.24c-1.85,7.37 -3.73,14.51 -5.58,21.78l192.53 111.5 0 545.4 21.69 12.52 0 -545.35 522.11 302.28 0 544.51 21.68 12.52 0 -544.46 468.02 271 0 -25.04 -468.02 -271 0 -603.33 468.02 271 0 -25.04 -468.02 -271 0 -542.71 -21.68 -12.53 0 542.66 -522.11 -302.32z"/>
   <path class="fil0" d="M594.63 1361.41l-12.8 -7.37 0 39.4c4.3,-10.86 8.5,-21.54 12.8,-32.04z"/>
   <path class="fil0" d="M2055.18 2933.28l-331.43 191.91 0 25.09 350.52 -202.97c-6.43,-4.44 -12.8,-9.12 -19.09,-14.03z"/>
   <path class="fil0" d="M1778.04 2465.4l-54.29 31.42 0 25.09 61.9 -35.86c-2.55,-6.85 -5.1,-13.75 -7.61,-20.65z"/>
   <path class="fil0" d="M2936.22 1819.84l294.39 -170.51 0 -25.04 -287.11 166.25c-2.41,9.79 -4.82,19.52 -7.27,29.3z"/>
   <path class="fil0" d="M1873.39 2410.22c2.45,6.9 4.91,13.89 7.37,20.74l316.36 -183.17 0 603.33 -36.8 21.35c8.08,4.11 16.34,7.75 24.75,10.68l12.05 -6.99 0 10.72c7.13,1.94 14.36,3.5 21.69,4.59l0 -27.87 289.61 -167.68c7.8,-12.33 15.55,-25.19 23.2,-38.46l-312.81 181.09 0 -603.33 522.06 -302.33 0 193.38c7.37,-24.71 14.65,-49.7 21.73,-74.79l0 -131.11 42.24 -24.47c2.55,-9.83 5.15,-19.66 7.65,-29.48l-49.89 28.87 0 -544.36 -21.73 12.57 0 544.37 -522.06 302.32 0 -545.26 -21.69 12.53 0 545.31 -323.72 187.47z"/>
   <path class="fil0" d="M2762.59 2405.59c-7.08,19.23 -14.36,38.13 -21.73,56.74l0 73.94 -40.91 23.72c-5.15,11.53 -10.4,22.87 -15.69,34.11l56.6 -32.79 0 542.29 21.73 -12.53 0 -542.33 468.02 -271.05 0 -25.04 -468.02 271.05 0 -118.12z"/>
   <path class="fil0" d="M2197.11 2998.05l0 419.49 21.69 -12.52 0 -404.19c-7.32,-0.66 -14.55,-1.65 -21.69,-2.79z"/>
   <path class="fil0" d="M1149.53 980.18l29.06 -17.01c-7.89,-4.25 -15.92,-7.89 -24.05,-11.01l-26.78 15.69 -48 -27.22c-11.48,0.76 -22.97,2.55 -34.45,5.44l60.81 34.44 -284.84 167.01c-7.75,12.33 -15.5,25.32 -23.2,38.74l329.87 -193.38 182.23 103.28c-9.79,-14.83 -19.85,-28.91 -30.1,-42l-130.54 -73.99z"/>
   <path class="fil0" d="M949.12 866.56l-291.79 -165.36 -21.77 12.57 291.26 165.08c7.37,-4.4 14.84,-8.46 22.3,-12.29z"/>
   <path class="fil0" d="M633.61 1257.57l4.72 2.7c1.23,-2.6 2.41,-5.06 3.64,-7.61l-8.36 4.91z"/>
   <path class="fil0" d="M2691.35 706.73l-21.6 -12.47 -453.27 265.71 -524.85 -297.55 458 -268.45 -21.59 -12.47 -458.19 268.59 -466.17 -264.29 -21.83 12.57 466.36 264.39 -383.92 225.07c6.38,4.44 12.76,9.07 18.95,14.03l386.8 -226.73 524.85 297.5 -520.51 305.12 -201.17 -114.05c5.43,11.2 10.77,22.54 16.01,34.02l163.57 92.69 -101.67 59.63c2.55,6.85 5.06,13.75 7.56,20.69l115.89 -67.94 481.71 273.04 21.78 -12.57 -481.86 -273.13 520.46 -305.11 485.87 275.39 21.78 -12.57 -486.02 -275.54 453.04 -265.56z"/>
   <path class="fil0" d="M1455.49 1406.06l-280.74 164.6 21.6 12.52 266.61 -156.33c-2.46,-7 -4.96,-13.84 -7.47,-20.78z"/>
   <path class="fil1" d="M1638.62 1618.1c-24.76,-82.78 -51.08,-166.73 -79.94,-247.38 -2.5,-6.95 -5.01,-13.84 -7.56,-20.69 -19.32,-52.78 -39.83,-103.94 -61.89,-152.32 -5.24,-11.48 -10.58,-22.82 -16.01,-34.02 -53.29,-109.84 -115.18,-202.59 -189.98,-261.88 -6.24,-4.91 -12.57,-9.55 -18.95,-13.99 -51.35,-35.76 -108.47,-56.17 -172.78,-56.17 -49.46,0 -96.8,11.72 -142.4,34.92 -7.51,3.83 -14.93,7.88 -22.3,12.29 -83.29,50.08 -160.53,140.18 -233.39,272.04 -17.43,31.51 -34.49,65.48 -51.45,101.77 -1.22,2.55 -2.41,5.01 -3.64,7.61 -14.64,31.74 -29.2,65.43 -43.7,101.15 -4.3,10.49 -8.5,21.17 -12.8,32.04 -13.42,34.3 -26.84,70.3 -40.3,108.38 -35.2,99.69 -68.08,205.42 -99.12,312.77 -2.08,7.13 -4.06,14.31 -6.09,21.49 -45.97,160.35 -87.83,323.54 -126.61,475.01 -4.11,16.2 -8.18,32.03 -12.24,47.9 -1.89,7.27 -3.73,14.65 -5.57,21.83 -19.84,77.39 -38.98,151 -57.55,219.03 -6.29,23.1 -12.28,45.63 -18.1,67.7 -6.05,23.2 3.87,47.72 24.62,59.77 0.33,0.19 0.61,0.38 0.94,0.57 30.76,17.86 70.11,2.03 79.14,-32.36 5.76,-21.87 11.76,-44.27 18,-67.09 16.34,-60.05 33.11,-124.21 50.36,-191.2 1.85,-7.33 3.73,-14.41 5.58,-21.78 6.57,-25.42 13.14,-51.27 19.89,-77.48 36.38,-142.4 75.64,-295.24 118.3,-445.86 2.03,-7.18 4.06,-14.36 6.1,-21.5 13.89,-48.56 28.01,-96.81 42.66,-144.33 7.13,-23.05 14.41,-45.73 21.69,-68.37 13.14,-40.73 26.5,-81.02 40.25,-120 48.05,-136.16 95.34,-245.58 144.52,-334.59 3.26,-5.86 6.52,-11.39 9.78,-17.06 7.7,-13.42 15.45,-26.41 23.2,-38.74 72.24,-114.71 147.31,-182.18 224.03,-201.45 11.48,-2.88 22.97,-4.68 34.45,-5.44 3.97,-0.24 7.84,-0.61 11.76,-0.61 21.83,0 42.76,4.34 63.03,12.14 8.12,3.12 16.16,6.76 24.05,11.01 36.15,19.56 69.88,50.74 101.48,91 10.25,13.08 20.27,27.17 30.1,42 54.52,82.59 102.33,191.3 145.32,309.89 2.51,6.94 5.01,13.79 7.47,20.78 25.8,72.86 49.84,149.01 72.57,224.84 7,23.48 28.54,38.7 51.88,38.7 7.56,0 15.31,-1.61 22.82,-5.01 24.99,-11.39 36.28,-40.96 28.39,-67.27z"/>
   <path class="fil2" d="M3311.91 939.83l-150.99 -87.21c-7.38,34.11 -15.5,71.29 -24.24,111.17l39.83 22.97 -51.5 29.76c-10.11,45.26 -20.93,93.35 -32.5,143.91l16.06 -9.26c0,0 0,0 0.05,0l121.99 -70.5 0 1740.16 -468.02 270.23 -21.73 12.53 -522.08 301.42 -21.67 12.53 -473.36 273.26 0 -1740.04 8.31 -4.82 465.04 -268.5 21.67 -12.53 522.08 -301.43 21.73 -12.57 74.51 -42.99c25.94,-14.98 34.78,-48.15 19.79,-74.04 -14.94,-25.94 -48.1,-34.86 -74.03,-19.84l-58.54 33.79 -21.79 12.57 -524.47 302.84 -21.78 12.57 -486.73 281.02 -473.2 -273.66 -21.59 -12.52 -264.39 -152.93c-0.05,0 -0.1,0 -0.14,-0.05l-21.22 -12.29c-25.89,-14.97 -59.11,-6.14 -74.08,19.79 -14.98,25.94 -6.15,59.11 19.79,74.09l290.89 168.24 21.68 12.53 468.03 270.71 0 1740.04 -468.03 -270.19 -21.68 -12.51 -522.11 -301.42 -21.69 -12.53 -210.38 -121.44c-70.17,-49.96 -136.93,64.45 -29.15,108.38l1300.15 750.56c8.37,4.82 17.72,7.24 27.07,7.24 9.4,0 18.75,-2.42 27.12,-7.24l1615.27 -932.58c16.78,-9.63 27.17,-27.54 27.17,-46.96l0 -1865.35c0,-19.32 -10.39,-37.23 -27.17,-46.92zm-3142.97 1915.95l-60.56 -34.95 0 -1740.16 473.44 273.37 12.81 7.37c14.5,-35.71 29.06,-69.41 43.71,-101.14l-4.72 -2.7 -470.86 -270.86 472.8 -272.94 21.76 -12.57 524.53 -302.84 21.83 -12.58 465.84 -268.97 458.51 264.68 21.6 12.47 520.11 300.28 21.6 12.48 346.78 200.18c8.85,-40.34 16.92,-77.62 24.14,-111.27l-1365.63 -788.38c-16.73,-9.68 -37.42,-9.68 -54.19,0l-1615.37 932.58c-4.16,2.42 -7.98,5.34 -11.3,8.7 -2.45,2.47 -4.39,5.39 -6.33,8.27 -0.67,0.99 -1.55,1.83 -2.23,2.87 -1.5,2.65 -2.45,5.58 -3.49,8.46 -0.56,1.56 -1.42,2.92 -1.85,4.53 -0.66,2.27 -0.66,4.68 -0.99,7.09 -0.28,2.32 -0.9,4.63 -0.9,7l0 1865.35c0,19.42 10.35,37.33 27.08,46.96l116.41 67.23 0.01 0.02 25.45 -110.53z"/>
   <path class="fil1" d="M2952.71 1283.7c0,0.04 0,0.04 0,0.04 -5.2,22.25 -10.54,44.88 -15.97,67.8 -8.88,37.42 -17.95,75.78 -27.12,114.86 -29.81,126.76 -61.94,263.3 -97.14,400.03 -2.5,9.83 -5.1,19.66 -7.65,29.48 -13.6,52.15 -27.64,104.17 -42.24,155.57 -7.08,25.09 -14.36,50.08 -21.73,74.79 -60.38,203.11 -129.22,391.76 -209.25,531.18 -7.65,13.27 -15.4,26.12 -23.2,38.46 -77.34,121.98 -164.74,197.53 -264.67,197.53 -8.46,0 -16.77,-0.8 -24.95,-1.98 -7.32,-1.09 -14.55,-2.65 -21.69,-4.59 -4.07,-1.13 -8.08,-2.31 -12.05,-3.73 -8.41,-2.92 -16.68,-6.57 -24.75,-10.68 -115.42,-59.01 -205.19,-236.13 -279.56,-441.51 -2.46,-6.85 -4.92,-13.84 -7.37,-20.74 -22.78,-64.26 -44.08,-130.87 -64.26,-197.2 0,0 0,0 0,0 -25.51,-84.01 -50.27,-171.51 -77.06,-267.08l-8.32 4.83 0 352.97c17.34,55.13 35.34,109.32 54.29,161.68 2.51,6.89 5.05,13.8 7.61,20.65 71.72,193.47 156.9,358.92 269.53,447.23 6.29,4.91 12.66,9.59 19.09,14.03 37.8,25.99 78.57,43.51 122.84,50.74 7.13,1.13 14.36,2.13 21.69,2.79 8.17,0.71 16.54,1.04 24.95,1.04 184.78,0 326.37,-165.22 440.52,-407.77 5.29,-11.25 10.54,-22.59 15.69,-34.11 14.07,-31.47 27.68,-64.07 40.91,-97.66 7.37,-18.62 14.65,-37.51 21.73,-56.74 66.48,-179.49 122.89,-382.83 173.63,-585.75 2.46,-9.78 4.87,-19.51 7.27,-29.3 25.09,-101.2 48.8,-201.97 71.68,-299.3 9.16,-39.03 18.19,-77.34 27.07,-114.67 5.44,-23.01 10.77,-45.73 16.02,-68.08 0,0 0,0 0,-0.05 12,-51.17 23.43,-100.63 34.26,-148.02 11.57,-50.56 22.39,-98.65 32.5,-143.91 3.97,-18.04 7.84,-35.62 11.67,-52.72 8.74,-39.88 16.86,-77.06 24.24,-111.17 31.46,-145.85 49.42,-235.42 49.75,-237.03 5.85,-29.39 -13.19,-57.92 -42.52,-63.78 -29.3,-5.81 -57.93,13.18 -63.79,42.52 -0.28,1.46 -15.4,76.68 -42.09,201.31 -7.23,33.64 -15.31,70.92 -24.15,111.26 -23.34,106.68 -52.16,235.14 -85.41,376.79z"/>
   <polygon class="fil3" points="305.04,3059.56 332.82,2950.41 "/>
   <path class="fil1" d="M90.14 3230.49c-4.91,29.49 15.07,57.41 44.55,62.37 3.03,0.53 6.05,0.76 9.02,0.76 26,0 48.96,-18.8 53.39,-45.31 0.24,-1.46 111.56,-481.05 141.84,-619.87l-122.71 39.11c-36.05,161.81 -125.81,561.3 -126.1,562.94z"/>
  </g>
 </g>
</svg>
